<svg xmlns="http://www.w3.org/2000/svg" xmlns:xlink="http://www.w3.org/1999/xlink" viewBox="0 0 750 500"><defs><style>.cls-1{isolation:isolate;}.cls-2{fill:url(#Degradado_sin_nombre_174);}.cls-3,.cls-5{fill:#022c90;}.cls-3{opacity:0.45;}.cls-3,.cls-5,.cls-8,.cls-9{mix-blend-mode:multiply;}.cls-4{fill:#fff;opacity:0.5;mix-blend-mode:overlay;}.cls-5,.cls-8{opacity:0.3;}.cls-6{fill:url(#Degradado_sin_nombre_174-2);}.cls-7{fill:url(#Degradado_sin_nombre_61);}.cls-8,.cls-9{fill:#3dc75b;}.cls-9{opacity:0.4;}.cls-10{fill:url(#Degradado_sin_nombre_61-2);}</style><linearGradient id="Degradado_sin_nombre_174" x1="-2348.79" y1="113.23" x2="-2348.79" y2="416.48" gradientTransform="matrix(-1, 0, 0, 1, -1826.45, 0)" gradientUnits="userSpaceOnUse"><stop offset="0.01" stop-color="#35029c"/><stop offset="0.42" stop-color="#3b31bc"/><stop offset="0.83" stop-color="#58b4de"/><stop offset="1" stop-color="#64ebec"/></linearGradient><linearGradient id="Degradado_sin_nombre_174-2" x1="227.66" y1="113.23" x2="227.66" y2="416.48" gradientTransform="matrix(1, 0, 0, 1, 0, 0)" xlink:href="#Degradado_sin_nombre_174"/><linearGradient id="Degradado_sin_nombre_61" x1="211.41" y1="102.22" x2="405.37" y2="335.64" gradientUnits="userSpaceOnUse"><stop offset="0" stop-color="#5ded5a"/><stop offset="0.17" stop-color="#5ae85e"/><stop offset="0.39" stop-color="#51d969"/><stop offset="0.63" stop-color="#43c07c"/><stop offset="0.88" stop-color="#2f9d96"/><stop offset="1" stop-color="#2489a5"/></linearGradient><linearGradient id="Degradado_sin_nombre_61-2" x1="353.9" y1="322.86" x2="538.05" y2="103.4" xlink:href="#Degradado_sin_nombre_61"/></defs><title>favicon-marble-nails-spa</title><g class="cls-1"><g id="OBJECTS"><path class="cls-2" d="M522.34,413.85h0a47.09,47.09,0,0,0,47.1-47.09V141.82a47.09,47.09,0,0,0-47.1-47.09h0a47.09,47.09,0,0,0-47.09,47.09V366.76A47.09,47.09,0,0,0,522.34,413.85Z"/><path class="cls-3" d="M522.34,94.73a47.09,47.09,0,0,1,47.1,47.09v38.92l-94.19,73.75V141.82A47.09,47.09,0,0,1,522.34,94.73Z"/><path class="cls-4" d="M558.07,111.19a46.87,46.87,0,0,1,11.37,30.63V366.76a46.85,46.85,0,0,1-11.37,30.63Z"/><path class="cls-5" d="M475.25,366.76V141.82a47.09,47.09,0,0,1,47.09-47.09V413.85A47.09,47.09,0,0,1,475.25,366.76Z"/><path class="cls-6" d="M227.66,413.85h0a47.09,47.09,0,0,1-47.1-47.09V141.82a47.09,47.09,0,0,1,47.1-47.09h0a47.09,47.09,0,0,1,47.09,47.09V366.76A47.09,47.09,0,0,1,227.66,413.85Z"/><path class="cls-3" d="M227.66,94.73a47.09,47.09,0,0,0-47.1,47.09v38.92l94.19,73.75V141.82A47.09,47.09,0,0,0,227.66,94.73Z"/><path class="cls-4" d="M191.93,111.19a46.87,46.87,0,0,0-11.37,30.63V366.76a46.85,46.85,0,0,0,11.37,30.63Z"/><path class="cls-5" d="M274.75,366.76V141.82a47.09,47.09,0,0,0-47.09-47.09V413.85A47.09,47.09,0,0,0,274.75,366.76Z"/><path class="cls-7" d="M408,334.18h0a47.1,47.1,0,0,0,0-66.6L275.53,102.65c-35-35.16-95-10.41-95,39.17h0L341.38,334.18A47.1,47.1,0,0,0,408,334.18Z"/><path class="cls-4" d="M275.53,102.65a54.45,54.45,0,0,0-34.69-16.3L421,309.18a47,47,0,0,0-13-41.6Z"/><path class="cls-8" d="M202.61,97.48a54.34,54.34,0,0,0-22.05,44.34h0L341.38,334.18a47.06,47.06,0,0,0,60.64,5Z"/><polygon class="cls-9" points="373.9 225.13 304.8 290.43 320.43 309.12 373.9 225.13"/><path class="cls-10" d="M474.47,102.65c35-35.16,95-10.41,95,39.17h0L408.62,334.18c-18.39,18.39-48.46,18.77-66.85.38h0l-29.16-34.79Z"/><path class="cls-8" d="M569.44,141.82h0a54.37,54.37,0,0,0-22.86-44.94L339.3,331.62l2.47,2.94c18.39,18.39,48.46,18,66.85-.38Z"/><path class="cls-4" d="M474.47,102.65,312.61,299.77l8.41,10L509.84,86.3A54.42,54.42,0,0,0,474.47,102.65Z"/></g></g></svg>